<?xml version="1.0" encoding="UTF-8"?>
<svg width="303px" height="103px" viewBox="0 0 303 103" version="1.1" xmlns="http://www.w3.org/2000/svg" xmlns:xlink="http://www.w3.org/1999/xlink">
    <!-- Generator: Sketch 51 (57462) - http://www.bohemiancoding.com/sketch -->
    <title>logo_L</title>
    <desc>Created with Sketch.</desc>
    <defs></defs>
    <g id="Welcome" stroke="none" stroke-width="1" fill="none" fill-rule="evenodd">
        <g id="1280_index" transform="translate(-517.000000, -225.000000)">
            <rect x="0" y="0" width="1280" height="3891"></rect>
            <g id="logo_L" transform="translate(517.000000, 225.000000)" fill="#B7A166">
                <g id="Page-1-Copy">
                    <path d="M11.1175839,94.3422426 L11.1175839,8.39059128 L11.1175839,94.3422426 Z" id="Fill-1"></path>
                    <polygon id="Fill-2" points="5.22701767 94.3421897 17.0076148 94.3421897 17.0076148 8.39053846 5.22701767 8.39053846"></polygon>
                    <polygon id="Fill-3" points="31.972014 98.6758487 23.6421906 90.0021923 36.1524504 77.6596231 36.1524504 41.1654026 28.0854769 36.0941051 38.1080316 26.6582487 47.9325122 32.7780333 47.9325122 82.9274128"></polygon>
                    <polygon id="Fill-4" points="16.841982 52.5362856 14.0651958 49.7964856 38.1205049 26.65846 40.8972912 29.3977318"></polygon>
                    <polygon id="Fill-5" points="59.757917 38.9884579 59.757917 85.0104426 77.5669293 102.582771 85.8967527 94.363899 71.5390495 80.1974374 71.5390495 41.0970528 71.4003975 32.5945349"></polygon>
                    <polygon id="Fill-6" points="89.7500989 52.0472733 70.3811184 32.9362836 80.6772297 26.6585656 98.0713569 43.8368528"></polygon>
                    <polygon id="Fill-7" points="68.6304636 72.8855995 65.8536774 70.1457995 95.2949989 41.0971585 98.0712498 43.8369585"></polygon>
                    <polygon id="Fill-8" points="74.8156786 99.8643103 77.5924648 102.60411 99.7109295 80.7807872 96.9341433 78.0415154"></polygon>
                    <polygon id="Fill-9" points="5.56144187 94.3422426 14.0652493 102.733309 22.5690567 94.3422426 14.0652493 85.9522323"></polygon>
                    <polygon id="Fill-10" points="8.50332562 0.000264102564 5.35335689e-05 8.39080256 8.50386095 16.781341 17.0076684 8.39080256 8.50439629 0.000264102564"></polygon>
                    <polygon id="Fill-11" points="130.929726 94.3421897 142.710859 94.3421897 142.710859 35.0485231 130.929726 35.0485231"></polygon>
                    <polygon id="Fill-12" points="130.929726 94.1863164 139.433534 102.576327 147.937341 94.1863164 139.433534 85.7952497"></polygon>
                    <polygon id="Fill-13" points="119.176806 62.9611005 110.672463 71.351639 102.168656 62.9611005 110.672463 54.5700338"></polygon>
                    <polygon id="Fill-14" points="145.3241 35.0487872 136.819757 43.4398538 128.316485 35.0487872 136.819757 26.6582487"></polygon>
                    <polygon id="Fill-15" points="136.736405 0.000264102564 128.233133 8.39080256 136.736941 16.781341 145.241283 8.39080256 136.737476 0.000264102564"></polygon>
                    <polygon id="Fill-16" points="19.3034019 94.3422426 27.806674 102.733309 36.3110168 94.3422426 27.806674 85.9522323"></polygon>
                    <polygon id="Fill-17" points="254.666147 94.185841 266.447279 94.185841 266.447279 35.0485231 254.666147 35.0485231"></polygon>
                    <polygon id="Fill-18" points="260.159333 56.0887821 257.382547 53.3489821 284.209824 26.8795667 286.986075 29.6193667"></polygon>
                    <polygon id="Fill-19" points="297.433151 94.1861051 285.652019 94.1861051 285.652019 45.7924795 276.042743 35.0149821 284.203936 26.6497974 297.433151 39.8348538"></polygon>
                    <polygon id="Fill-20" points="254.666628 94.1863164 263.169901 102.576327 271.674243 94.1863164 263.169901 85.7952497"></polygon>
                    <polygon id="Fill-21" points="266.44744 35.0487872 257.943097 43.4398538 249.43929 35.0487872 257.943097 26.6582487"></polygon>
                    <polygon id="Fill-22" points="285.643614 94.1863164 294.147957 102.576327 302.651764 94.1863164 294.147957 85.7952497"></polygon>
                    <polygon id="Fill-23" points="169.36549 99.8643103 172.142277 102.60411 194.220591 80.8204026 191.443805 78.0806026"></polygon>
                    <polygon id="Fill-24" points="179.651966 55.4693031 176.875179 52.7295031 189.908997 39.869821 192.685784 42.6090928"></polygon>
                    <polygon id="Fill-25" points="170.753562 101.207008 154.392098 85.0634744 154.392098 38.7446385 166.172695 34.0710795 166.172695 80.249941 179.083386 92.9881359"></polygon>
                    <polygon id="Fill-26" points="184.365436 50.8392154 168.185985 34.8742154 177.908752 28.0281487 192.696865 42.6203436"></polygon>
                    <polygon id="Fill-27" points="157.234248 41.4842272 154.457462 38.7444272 176.519716 26.6585656 179.296503 29.3978374"></polygon>
                    <polygon id="Fill-28" points="62.1640903 41.4842272 59.3873041 38.7444272 80.8788906 26.8571708 83.6556769 29.5964426"></polygon>
                    <polygon id="Fill-29" points="203.154969 41.4842272 200.41405 38.7792887 221.63208 26.7414938 224.372999 29.4459041"></polygon>
                    <polygon id="Fill-30" points="219.108187 99.7126626 221.849105 102.417601 239.182204 92.5142831 236.44075 89.8098728"></polygon>
                    <polygon id="Fill-31" points="243.036461 90.3421451 231.405222 96.9742887 231.405222 44.202899 215.132088 34.6888682 221.632134 26.7414938 243.036461 39.1083605"></polygon>
                    <polygon id="Fill-32" points="200.413783 38.7555195 200.413783 90.3421451 221.849159 102.417443 231.405436 96.9737605 212.045021 85.5904118 212.045021 32.3214528"></polygon>
                </g>
            </g>
        </g>
    </g>
</svg>