<?xml version="1.0" encoding="UTF-8"?>
<svg width="42px" height="42px" viewBox="0 0 42 42" version="1.1" xmlns="http://www.w3.org/2000/svg" xmlns:xlink="http://www.w3.org/1999/xlink">
    <!--&lt;!&ndash; Generator: sketchtool 50.2 (55047) - http://www.bohemiancoding.com/sketch &ndash;&gt;
    <title>4A3BFA8B-35F2-4ED3-9C90-0398935826D5</title>
    <desc>Created with sketchtool.</desc>
    <defs></defs>-->
    <g id="Welcome" stroke="none" stroke-width="1"  fill-rule="evenodd">
       <!-- <g id="1280_search_resault" transform="translate(-1070.000000, -110.000000)">-->
          <!--  <g id="assets/icons/search_w-copy" transform="translate(1064.000000, 104.000000)">-->
              <!--  <g id="assets/icons/search">-->
                   <!-- <polygon id="Shape" points="0 0 48 0 48 48 0 48"></polygon>-->
                    <path d="M31,28 L29.42,28 L28.86,27.46 C30.82,25.18 32,22.22 32,19 C32,11.82 26.18,6 19,6 C11.82,6 6,11.82 6,19 C6,26.18 11.82,32 19,32 C22.22,32 25.18,30.82 27.46,28.86 L28,29.42 L28,31 L38,40.98 L40.98,38 L31,28 L31,28 Z M19,28 C14.02,28 10,23.98 10,19 C10,14.02 14.02,10 19,10 C23.98,10 28,14.02 28,19 C28,23.98 23.98,28 19,28 L19,28 Z" fill="#2F414B"></path>
              <!--  </g>-->
            <!--</g>-->
       <!-- </g>-->
    </g>
</svg>